<svg width="183" height="64" viewBox="0 0 183 64" fill="none" xmlns="http://www.w3.org/2000/svg">
<path fill-rule="evenodd" clip-rule="evenodd" d="M3.3217 4.06596H55.6927C57.5852 4.06596 59.1193 5.60009 59.1193 7.49255V59.8636H6.74828C4.85583 59.8636 3.3217 58.3294 3.3217 56.437V4.06596ZM0.0418701 0.786133H3.3217H55.6927C59.3966 0.786133 62.3991 3.7887 62.3991 7.49255V59.8636V63.1434H59.1193H6.74828C3.04443 63.1434 0.0418701 60.1408 0.0418701 56.437V4.06596V0.786133ZM75.9517 4.45369H79.6838L83.6148 12.9814L87.5457 4.45369H91.1454V18.7861H88.5174V8.32689L84.4539 17.2182H82.7535L78.5575 8.03303V18.7861H75.9517V4.45369ZM99.2507 19.0953C98.3379 19.0953 97.5024 18.8597 96.7442 18.3886C95.9859 17.9175 95.3786 17.2587 94.9222 16.4121C94.4658 15.5582 94.2376 14.5607 94.2376 13.4197C94.2376 12.2419 94.4622 11.2298 94.9112 10.3832C95.3676 9.53666 95.9749 8.88887 96.7331 8.43983C97.4913 7.99079 98.3305 7.76627 99.2507 7.76627C100.105 7.76627 100.841 7.93926 101.459 8.28524C102.085 8.62386 102.585 9.08762 102.961 9.67653C103.344 10.2581 103.601 10.9169 103.734 11.653C103.866 12.3892 103.874 13.1474 103.756 13.9277H96.8215C96.8236 14.5222 96.9119 15.0486 97.0865 15.5067C97.2705 15.9704 97.5392 16.3348 97.8925 16.5998C98.2532 16.8648 98.7059 16.9973 99.2507 16.9973C99.7586 16.9973 100.186 16.8796 100.532 16.644C100.878 16.4084 101.098 16.0551 101.194 15.584H103.822C103.712 16.2759 103.45 16.8869 103.038 17.4169C102.633 17.9396 102.107 18.3518 101.459 18.6536C100.811 18.9481 100.075 19.0953 99.2507 19.0953ZM97.1085 11.3218C96.9573 11.6825 96.8658 12.08 96.8341 12.5143H101.413C101.41 12.2768 101.389 12.0375 101.349 11.7966C101.297 11.4432 101.194 11.1193 101.039 10.8249C100.885 10.5304 100.664 10.2949 100.377 10.1182C100.097 9.93417 99.7365 9.84216 99.2948 9.84216C98.7648 9.84216 98.3158 9.97466 97.9477 10.2397C97.5797 10.5047 97.2999 10.8654 97.1085 11.3218ZM114.318 18.7861V12.5143C114.318 11.7193 114.127 11.1193 113.744 10.7145C113.361 10.3096 112.86 10.1072 112.242 10.1072C111.719 10.1072 111.256 10.2507 110.851 10.5378C110.453 10.8249 110.14 11.2592 109.912 11.8407C109.684 12.4149 109.57 13.1327 109.57 13.9939V18.7861H106.964V8.07544H109.239L109.518 9.86657C109.831 9.26343 110.224 8.79153 110.696 8.45087C111.329 7.99447 112.073 7.76627 112.927 7.76627C113.81 7.76627 114.546 7.96502 115.135 8.36253C115.731 8.75268 116.177 9.30478 116.471 10.0188C116.773 10.7329 116.924 11.5647 116.924 12.5143V18.7861H114.318ZM124.676 19.0953C123.778 19.0953 122.957 18.8597 122.214 18.3886C121.478 17.9101 120.889 17.2439 120.447 16.39C120.013 15.5288 119.796 14.5239 119.796 13.3756C119.796 12.2419 120.006 11.2555 120.425 10.4163C120.852 9.56979 121.419 8.91831 122.126 8.46191C122.84 7.99815 123.631 7.76627 124.5 7.76627C125.295 7.76627 125.983 7.95766 126.564 8.34045C126.953 8.59112 127.28 8.92383 127.547 9.33859V3.63658H130.175V18.7861H128.033L127.728 17.1218C127.413 17.7332 127.01 18.2033 126.52 18.5322C125.961 18.9076 125.346 19.0953 124.676 19.0953ZM127.205 11.3328C127.433 11.723 127.547 12.1978 127.547 12.7572V14.0381C127.547 14.5755 127.426 15.0466 127.183 15.4515C126.947 15.8563 126.638 16.1729 126.255 16.4011C125.88 16.6219 125.486 16.7323 125.074 16.7323C124.566 16.7323 124.109 16.5925 123.705 16.3127C123.307 16.033 122.994 15.6429 122.766 15.1423C122.538 14.6417 122.424 14.0528 122.424 13.3756C122.424 12.7204 122.538 12.1499 122.766 11.6641C122.994 11.1709 123.307 10.7881 123.705 10.5157C124.109 10.2433 124.573 10.1072 125.096 10.1072C125.53 10.1072 125.931 10.2139 126.299 10.4274C126.675 10.6335 126.977 10.9353 127.205 11.3328ZM138.286 19.0953C137.373 19.0953 136.537 18.8597 135.779 18.3886C135.021 17.9175 134.414 17.2587 133.957 16.4121C133.501 15.5582 133.273 14.5607 133.273 13.4197C133.273 12.2419 133.497 11.2298 133.946 10.3832C134.403 9.53666 135.01 8.88887 135.768 8.43983C136.526 7.99079 137.366 7.76627 138.286 7.76627C139.14 7.76627 139.876 7.93926 140.494 8.28524C141.12 8.62386 141.62 9.08762 141.996 9.67653C142.379 10.2581 142.636 10.9169 142.769 11.653C142.901 12.3892 142.909 13.1474 142.791 13.9277H135.857C135.859 14.5222 135.947 15.0486 136.121 15.5067C136.305 15.9704 136.574 16.3348 136.928 16.5998C137.288 16.8648 137.741 16.9973 138.286 16.9973C138.794 16.9973 139.221 16.8796 139.567 16.644C139.913 16.4084 140.133 16.0551 140.229 15.584H142.857C142.747 16.2759 142.485 16.8869 142.073 17.4169C141.668 17.9396 141.142 18.3518 140.494 18.6536C139.846 18.9481 139.11 19.0953 138.286 19.0953ZM136.144 11.3218C135.992 11.6825 135.901 12.08 135.869 12.5143H140.448C140.445 12.2768 140.424 12.0375 140.384 11.7966C140.332 11.4432 140.229 11.1193 140.074 10.8249C139.92 10.5304 139.699 10.2949 139.412 10.1182C139.132 9.93417 138.772 9.84216 138.33 9.84216C137.8 9.84216 137.351 9.97466 136.983 10.2397C136.615 10.5047 136.335 10.8654 136.144 11.3218ZM149.996 19.0953C148.966 19.0953 148.079 18.9554 147.335 18.6757C146.599 18.3886 146.032 17.9801 145.635 17.4501C145.237 16.9127 145.035 16.2686 145.027 15.5177H147.434C147.457 16.0477 147.666 16.4342 148.064 16.6771C148.461 16.92 149.002 17.0415 149.687 17.0415C150.062 17.0415 150.394 16.9863 150.681 16.8759C150.975 16.7655 151.203 16.6145 151.365 16.4232C151.527 16.2318 151.608 16.0183 151.608 15.7827C151.608 15.4809 151.498 15.2453 151.277 15.076C151.064 14.8994 150.718 14.7374 150.239 14.5902L147.898 13.751C147.059 13.4492 146.415 13.0517 145.966 12.5585C145.517 12.0653 145.292 11.4764 145.292 10.7918C145.292 9.88632 145.701 9.15755 146.518 8.60546C147.342 8.046 148.443 7.76627 149.82 7.76627C151.189 7.76627 152.245 8.06808 152.989 8.67171C153.739 9.26797 154.126 10.0262 154.148 10.9464H151.697C151.66 10.593 151.491 10.3133 151.189 10.1072C150.887 9.90105 150.43 9.79799 149.82 9.79799C149.267 9.79799 148.833 9.91209 148.517 10.1403C148.207 10.3611 148.053 10.6225 148.053 10.9243C148.053 11.4322 148.487 11.815 149.356 12.0726L151.895 13.0222C152.72 13.302 153.36 13.6627 153.817 14.1043C154.273 14.546 154.501 15.1055 154.501 15.7827C154.501 16.3495 154.31 16.8869 153.927 17.3948C153.552 17.8954 153.025 18.304 152.348 18.6205C151.671 18.937 150.887 19.0953 149.996 19.0953ZM177.872 19.0953C177.158 19.0953 176.492 18.9407 175.874 18.6315C175.302 18.3388 174.695 17.9074 174.054 17.3375C173.437 17.8333 172.77 18.2316 172.053 18.5322C171.148 18.9076 170.172 19.0953 169.127 19.0953C168.31 19.0953 167.544 18.9849 166.83 18.764C166.116 18.5432 165.487 18.234 164.942 17.8365C164.397 17.439 163.97 16.9753 163.661 16.4452C163.359 15.9079 163.208 15.3263 163.208 14.7006C163.208 13.567 163.668 12.7057 164.589 12.1168C165.279 11.6785 166.167 11.3665 167.253 11.1811L166.896 10.858C166.433 10.4384 166.05 9.95626 165.748 9.41152C165.454 8.86678 165.306 8.29628 165.306 7.70002C165.306 7.05222 165.494 6.467 165.87 5.94435C166.245 5.41434 166.793 4.99474 167.515 4.68557C168.236 4.36903 169.112 4.21076 170.143 4.21076C171.137 4.21076 171.983 4.36535 172.682 4.67452C173.389 4.9837 173.93 5.39961 174.306 5.92226C174.681 6.44492 174.869 7.02278 174.869 7.65585C174.869 8.31837 174.707 8.91463 174.383 9.44465C174.059 9.9673 173.573 10.4384 172.925 10.858C172.43 11.1731 171.84 11.4624 171.156 11.7259L173.951 14.2478C174.322 13.813 174.668 13.3346 174.99 12.8124C175.476 12.0174 175.907 11.1525 176.282 10.2176L178.027 11.1893C177.629 12.3671 177.136 13.4418 176.547 14.4135C176.258 14.8923 175.949 15.3385 175.618 15.752L175.995 16.0919C176.267 16.3201 176.518 16.4968 176.746 16.6219C176.981 16.7397 177.268 16.7986 177.607 16.7986C177.96 16.7986 178.262 16.6698 178.513 16.4121C178.77 16.1545 178.91 15.7386 178.932 15.1644H181.295C181.266 16.3643 180.968 17.3212 180.401 18.0353C179.834 18.742 178.991 19.0953 177.872 19.0953ZM168.721 12.5101L172.302 15.7523C172.023 15.94 171.734 16.1047 171.435 16.2465C170.735 16.5704 169.973 16.7323 169.149 16.7323C168.501 16.7323 167.949 16.633 167.493 16.4342C167.036 16.2354 166.687 15.9741 166.444 15.6502C166.201 15.319 166.079 14.9509 166.079 14.546C166.079 13.9571 166.33 13.486 166.83 13.1327C167.25 12.8348 167.88 12.6272 168.721 12.5101ZM170.75 9.89737C170.464 10.0778 170.122 10.2566 169.724 10.4336L169.215 9.97466C168.862 9.65076 168.601 9.33791 168.431 9.03609C168.262 8.73428 168.177 8.41406 168.177 8.07544C168.177 7.62641 168.343 7.2473 168.674 6.93812C169.013 6.62159 169.502 6.46332 170.143 6.46332C170.695 6.46332 171.14 6.60687 171.479 6.89396C171.825 7.18105 171.998 7.54543 171.998 7.98711C171.998 8.3699 171.895 8.71588 171.689 9.02505C171.49 9.33423 171.177 9.625 170.75 9.89737ZM84.0785 26.4537L80.5459 37.5197L77.0558 26.4537H74.2954L79.1538 40.7861H81.8922L86.8169 26.4537H84.0785ZM95.1978 40.7861L94.9839 39.1036C94.6991 39.6818 94.2956 40.1506 93.7734 40.5101C93.2139 40.9002 92.5182 41.0953 91.6864 41.0953C90.7663 41.0953 89.997 40.937 89.3787 40.6205C88.7677 40.2966 88.3076 39.8733 87.9984 39.3507C87.6892 38.828 87.5347 38.2612 87.5347 37.6502C87.5347 36.973 87.7113 36.4062 88.0647 35.9498C88.4254 35.486 88.9333 35.14 89.5885 34.9118C90.2436 34.6763 91.0165 34.5585 91.9073 34.5585C92.4888 34.5585 93.0372 34.6026 93.5525 34.691C93.9931 34.7654 94.4311 34.8608 94.8665 34.9772V33.8739C94.8665 33.123 94.7119 32.5672 94.4027 32.2065C94.1009 31.8458 93.5856 31.6655 92.8569 31.6655C92.4373 31.6655 92.0729 31.7281 91.7637 31.8532C91.4545 31.9783 91.2153 32.1587 91.046 32.3943C90.884 32.6225 90.8031 32.9022 90.8031 33.2334H87.9542C87.9542 32.4237 88.1493 31.7649 88.5395 31.2569C88.9296 30.7416 89.4891 30.3662 90.2178 30.1307C90.954 29.8877 91.8336 29.7663 92.8569 29.7663C93.7844 29.7663 94.5941 29.9172 95.2861 30.219C95.9781 30.5134 96.5154 30.9698 96.8982 31.5882C97.281 32.2065 97.4724 32.9979 97.4724 33.9622V40.7861H95.1978ZM94.8665 36.4934V36.811C94.8665 37.1644 94.7671 37.5177 94.5684 37.8711C94.377 38.2244 94.0936 38.5189 93.7181 38.7544C93.3427 38.99 92.8863 39.1078 92.3489 39.1078C91.6423 39.1078 91.127 38.9642 90.8031 38.6771C90.4792 38.39 90.3172 38.0477 90.3172 37.6502C90.3172 37.1055 90.516 36.719 90.9135 36.4908C91.311 36.2626 91.8189 36.1485 92.4373 36.1485C92.8569 36.1485 93.3059 36.1853 93.7844 36.2589C94.1689 36.3181 94.5296 36.3962 94.8665 36.4934ZM101.292 40.7861V25.6366H103.898V40.7861H101.292ZM112.018 41.0953C111.105 41.0953 110.27 40.8597 109.511 40.3886C108.753 39.9175 108.146 39.2587 107.689 38.4121C107.233 37.5582 107.005 36.5607 107.005 35.4197C107.005 34.2419 107.229 33.2298 107.678 32.3832C108.135 31.5367 108.742 30.8889 109.5 30.4398C110.259 29.9908 111.098 29.7663 112.018 29.7663C112.872 29.7663 113.608 29.9393 114.226 30.2852C114.852 30.6239 115.353 31.0876 115.728 31.6765C116.111 32.2581 116.368 32.9169 116.501 33.653C116.633 34.3892 116.641 35.1474 116.523 35.9277H109.589C109.591 36.5222 109.679 37.0486 109.854 37.5067C110.038 37.9704 110.306 38.3348 110.66 38.5998C111.02 38.8648 111.473 38.9973 112.018 38.9973C112.526 38.9973 112.953 38.8796 113.299 38.644C113.645 38.4084 113.866 38.0551 113.961 37.584H116.589C116.479 38.2759 116.218 38.8869 115.805 39.4169C115.4 39.9396 114.874 40.3518 114.226 40.6536C113.579 40.9481 112.842 41.0953 112.018 41.0953ZM109.876 33.3218C109.725 33.6825 109.633 34.08 109.601 34.5143H114.18C114.177 34.2768 114.156 34.0375 114.116 33.7966C114.064 33.4432 113.961 33.1193 113.807 32.8249C113.652 32.5304 113.431 32.2949 113.144 32.1182C112.864 31.9342 112.504 31.8422 112.062 31.8422C111.532 31.8422 111.083 31.9747 110.715 32.2397C110.347 32.5047 110.067 32.8654 109.876 33.3218ZM127.085 40.7861V34.5143C127.085 33.7193 126.894 33.1193 126.511 32.7145C126.128 32.3096 125.628 32.1072 125.009 32.1072C124.487 32.1072 124.023 32.2507 123.618 32.5378C123.221 32.8249 122.908 33.2592 122.679 33.8407C122.451 34.4149 122.337 35.1327 122.337 35.9939V40.7861H119.731V30.0754H122.006L122.286 31.8666C122.598 31.2634 122.991 30.7915 123.463 30.4509C124.096 29.9945 124.84 29.7663 125.694 29.7663C126.577 29.7663 127.313 29.965 127.902 30.3625C128.499 30.7527 128.944 31.3048 129.238 32.0188C129.54 32.7329 129.691 33.5647 129.691 34.5143V40.7861H127.085ZM137.112 41.0953C136.479 41.0953 135.898 40.9775 135.368 40.742C134.845 40.5064 134.425 40.1457 134.109 39.6599C133.8 39.174 133.645 38.5557 133.645 37.8048V31.798H132.143V30.0754H133.645V27.2266H136.251V30.0754H139.166V31.798H136.251V37.7165C136.251 38.5998 136.671 39.0415 137.51 39.0415C137.767 39.0415 138.025 39.0121 138.283 38.9532C138.54 38.8943 138.835 38.8059 139.166 38.6882L139.542 40.5211C139.129 40.6831 138.728 40.8193 138.338 40.9297C137.948 41.0401 137.539 41.0953 137.112 41.0953ZM146.201 41.0953C145.288 41.0953 144.452 40.8597 143.694 40.3886C142.936 39.9175 142.328 39.2587 141.872 38.4121C141.416 37.5582 141.187 36.5607 141.187 35.4197C141.187 34.2419 141.412 33.2298 141.861 32.3832C142.317 31.5367 142.925 30.8889 143.683 30.4398C144.441 29.9908 145.28 29.7663 146.201 29.7663C147.054 29.7663 147.791 29.9393 148.409 30.2852C149.035 30.6239 149.535 31.0876 149.911 31.6765C150.293 32.2581 150.551 32.9169 150.684 33.653C150.816 34.3892 150.823 35.1474 150.706 35.9277H143.771C143.773 36.5222 143.862 37.0486 144.036 37.5067C144.22 37.9704 144.489 38.3348 144.842 38.5998C145.203 38.8648 145.656 38.9973 146.201 38.9973C146.708 38.9973 147.135 38.8796 147.481 38.644C147.827 38.4084 148.048 38.0551 148.144 37.584H150.772C150.661 38.2759 150.4 38.8869 149.988 39.4169C149.583 39.9396 149.057 40.3518 148.409 40.6536C147.761 40.9481 147.025 41.0953 146.201 41.0953ZM144.058 33.3218C143.907 33.6825 143.816 34.08 143.784 34.5143H148.362C148.36 34.2768 148.339 34.0375 148.298 33.7966C148.247 33.4432 148.144 33.1193 147.989 32.8249C147.835 32.5304 147.614 32.2949 147.327 32.1182C147.047 31.9342 146.686 31.8422 146.245 31.8422C145.715 31.8422 145.266 31.9747 144.898 32.2397C144.529 32.5047 144.25 32.8654 144.058 33.3218ZM74.2379 61.008L76.8309 53.5084H77.6628L80.2194 61.008H79.4786L78.7863 58.9251H75.6953L74.9727 61.008H74.2379ZM75.8775 58.3543H78.592L77.2317 54.3828L75.8775 58.3543ZM87.9113 53.5084H89.9881C90.7411 53.5084 91.3909 53.6642 91.9374 53.976C92.488 54.2836 92.9131 54.7188 93.2126 55.2816C93.5122 55.8402 93.662 56.4981 93.662 57.2552C93.662 58.0041 93.5122 58.66 93.2126 59.2227C92.9131 59.7854 92.488 60.2247 91.9374 60.5404C91.3909 60.8521 90.7411 61.008 89.9881 61.008H87.9113V53.5084ZM88.6157 54.1156V60.4129H89.9881C90.5954 60.4129 91.1176 60.2753 91.5548 60C91.9921 59.7247 92.3281 59.3502 92.5629 58.8765C92.8017 58.3988 92.9212 57.8584 92.9212 57.2552C92.9212 56.6479 92.8017 56.1095 92.5629 55.6399C92.3281 55.1662 91.9921 54.7937 91.5548 54.5225C91.1176 54.2513 90.5954 54.1156 89.9881 54.1156H88.6157ZM106.189 53.5084L103.864 60.1236L101.544 53.5084H100.791L103.499 61.008H104.222L106.948 53.5084H106.189ZM117.005 61.1416C116.406 61.1416 115.868 60.9999 115.39 60.7165C114.912 60.4331 114.534 60.006 114.254 59.4352C113.975 58.8603 113.835 58.1418 113.835 57.2794C113.835 56.405 113.975 55.6803 114.254 55.1055C114.534 54.5265 114.912 54.0954 115.39 53.812C115.868 53.5286 116.406 53.3869 117.005 53.3869C117.6 53.3869 118.137 53.5306 118.615 53.8181C119.092 54.1015 119.471 54.5326 119.75 55.1115C120.029 55.6864 120.169 56.409 120.169 57.2794C120.169 58.1499 120.029 58.8705 119.75 59.4413C119.471 60.0121 119.092 60.4392 118.615 60.7226C118.137 61.0019 117.6 61.1416 117.005 61.1416ZM117.005 60.4797C117.758 60.4797 118.351 60.2105 118.785 59.672C119.218 59.1296 119.434 58.328 119.434 57.2673C119.434 56.2228 119.218 55.4212 118.785 54.8626C118.351 54.2998 117.758 54.0185 117.005 54.0185C116.256 54.0185 115.663 54.2998 115.226 54.8626C114.789 55.4253 114.57 56.2309 114.57 57.2794C114.57 58.3361 114.789 59.1336 115.226 59.672C115.663 60.2105 116.256 60.4797 117.005 60.4797ZM130.692 61.1416C130.032 61.1416 129.466 60.9716 128.992 60.6315C128.518 60.2874 128.154 59.8198 127.899 59.2287C127.648 58.6336 127.522 57.9555 127.522 57.1944C127.522 56.3686 127.662 55.6743 127.941 55.1115C128.225 54.5448 128.605 54.1156 129.083 53.8242C129.565 53.5327 130.101 53.3869 130.692 53.3869C131.457 53.3869 132.081 53.5812 132.563 53.9699C133.048 54.3585 133.395 54.8626 133.601 55.482L132.836 55.652C132.666 55.146 132.389 54.7472 132.004 54.4557C131.623 54.1602 131.186 54.0124 130.692 54.0124C130.267 54.0124 129.87 54.1339 129.502 54.3768C129.138 54.6156 128.842 54.9719 128.615 55.4455C128.393 55.9192 128.282 56.5022 128.282 57.1944C128.282 57.8138 128.367 58.3745 128.537 58.8765C128.711 59.3745 128.976 59.7712 129.332 60.0668C129.688 60.3582 130.142 60.504 130.692 60.504C131.34 60.504 131.858 60.3299 132.247 59.9818C132.64 59.6336 132.836 59.17 132.836 58.5911H133.619C133.619 59.1174 133.494 59.5708 133.243 59.9514C132.992 60.3319 132.646 60.6254 132.204 60.8319C131.763 61.0384 131.259 61.1416 130.692 61.1416ZM140.609 61.008L143.202 53.5084H144.034L146.591 61.008H145.85L145.158 58.9251H142.067L141.344 61.008H140.609ZM142.249 58.3543H144.963L143.603 54.3828L142.249 58.3543ZM156.821 61.1416C156.161 61.1416 155.594 60.9716 155.121 60.6315C154.647 60.2874 154.283 59.8198 154.028 59.2287C153.777 58.6336 153.651 57.9555 153.651 57.1944C153.651 56.3686 153.791 55.6743 154.07 55.1115C154.354 54.5448 154.734 54.1156 155.212 53.8242C155.694 53.5327 156.23 53.3869 156.821 53.3869C157.586 53.3869 158.21 53.5812 158.691 53.9699C159.177 54.3585 159.523 54.8626 159.73 55.482L158.965 55.652C158.795 55.146 158.517 54.7472 158.133 54.4557C157.752 54.1602 157.315 54.0124 156.821 54.0124C156.396 54.0124 155.999 54.1339 155.631 54.3768C155.266 54.6156 154.971 54.9719 154.744 55.4455C154.522 55.9192 154.41 56.5022 154.41 57.1944C154.41 57.8138 154.495 58.3745 154.665 58.8765C154.839 59.3745 155.104 59.7712 155.461 60.0668C155.817 60.3582 156.27 60.504 156.821 60.504C157.469 60.504 157.987 60.3299 158.376 59.9818C158.768 59.6336 158.965 59.17 158.965 58.5911H159.748C159.748 59.1174 159.622 59.5708 159.371 59.9514C159.12 60.3319 158.774 60.6254 158.333 60.8319C157.892 61.0384 157.388 61.1416 156.821 61.1416ZM167.673 61.008V53.5084H168.378V61.008H167.673ZM176.06 61.008L178.653 53.5084H179.485L182.042 61.008H181.301L180.609 58.9251H177.518L176.795 61.008H176.06ZM177.7 58.3543H180.414L179.054 54.3828L177.7 58.3543ZM12.4895 16.8283L18.1778 24.6467V49.02H12.4895V16.8283ZM44.2632 24.6467L49.9515 16.8283V49.02H44.2632V24.6467ZM30.5184 39.9643V30.6023L19.1424 14.8166L12.4894 14.8166L30.5184 39.9643ZM31.9226 30.6022V39.9642L49.9515 14.8165L43.2985 14.8165L31.9226 30.6022Z" fill="#E2BD5F"/>
</svg>
