<svg width="187" height="45" viewBox="0 0 187 45" fill="none" xmlns="http://www.w3.org/2000/svg">
<path fill-rule="evenodd" clip-rule="evenodd" d="M40.8174 5.5918C40.8174 4.28428 39.7577 3.22365 38.4502 3.22363H2.26562V39.4082C2.26564 40.7157 3.32627 41.7754 4.63379 41.7754H40.8174V5.5918ZM4.63379 44.042L4.39551 44.0361C2.02601 43.9162 0.125896 42.0159 0.00585938 39.6465L0 39.4082V0.958008H38.4502L38.6885 0.963867C41.1368 1.0879 43.084 3.11266 43.084 5.5918V44.042H4.63379ZM8.60026 12.0418L12.5304 17.4438V34.2837H8.60026V12.0418ZM30.5533 17.4438L34.4835 12.0418V34.2837H30.5533V17.4438ZM21.0568 28.027V21.5586L13.1969 10.6519L8.60026 10.6519L21.0568 28.027ZM22.027 21.5585V28.0269L34.4835 10.6519L29.8868 10.6519L22.027 21.5585ZM54.542 13.2277H56.2509L59.4856 19.7271L62.7203 13.2277H64.3835V22.8098H63.1781V14.8983L59.8823 21.6044H59.0889L55.7321 14.7882V22.8098H54.542V13.2277ZM67.4455 22.8098V13.2277H73.3504V14.25H68.6356V17.4695H73.0758V18.4918H68.6356V21.7723H73.3504V22.8098H67.4455ZM76.0133 13.2277H77.4323L82.1929 20.9431V13.2277H83.383V22.8098H82.0555L77.2034 14.9582V22.8098H76.0133V13.2277ZM86.4589 13.2277H89.2664C90.2328 13.2277 91.072 13.4261 91.784 13.8228C92.4961 14.2144 93.0479 14.7688 93.4396 15.4859C93.8312 16.203 94.027 17.0473 94.027 18.0188C94.027 18.98 93.8312 19.8192 93.4396 20.5364C93.0479 21.2535 92.4961 21.813 91.784 22.2148C91.072 22.6115 90.2328 22.8098 89.2664 22.8098H86.4589V13.2277ZM87.6491 14.2805V21.7723H89.2664C89.9887 21.7723 90.6092 21.6095 91.1279 21.284C91.6518 20.9585 92.0536 20.5135 92.3333 19.9489C92.6182 19.3793 92.7606 18.7359 92.7606 18.0188C92.7606 17.2965 92.6182 16.6557 92.3333 16.0962C92.0536 15.5317 91.6518 15.0892 91.1279 14.7688C90.6092 14.4433 89.9887 14.2805 89.2664 14.2805H87.6491ZM96.5165 13.2277H102.421V14.25H97.7066V17.4695H102.147V18.4918H97.7066V21.7723H102.421V22.8098H96.5165V13.2277ZM108.166 22.9929C107.526 22.9929 106.938 22.8785 106.404 22.6496C105.87 22.4157 105.44 22.0723 105.115 21.6197C104.789 21.167 104.621 20.6076 104.611 19.9413H105.771C105.771 20.3889 105.88 20.7576 106.099 21.0475C106.318 21.3323 106.608 21.5459 106.969 21.6883C107.33 21.8257 107.724 21.8943 108.151 21.8943C108.614 21.8943 109.016 21.8206 109.357 21.6731C109.697 21.5256 109.959 21.3323 110.142 21.0933C110.331 20.8491 110.425 20.5821 110.425 20.2922C110.425 19.8853 110.3 19.5573 110.051 19.3081C109.802 19.0538 109.433 18.8478 108.945 18.6901L107.251 18.095C106.458 17.8102 105.857 17.4847 105.45 17.1185C105.044 16.7523 104.84 16.2386 104.84 15.5775C104.84 14.8349 105.125 14.2296 105.695 13.7617C106.269 13.2938 107.083 13.0599 108.136 13.0599C109.112 13.0599 109.875 13.2862 110.425 13.7388C110.974 14.1864 111.289 14.7891 111.371 15.5469H110.196C110.119 15.1044 109.911 14.7611 109.57 14.517C109.234 14.2678 108.756 14.1432 108.136 14.1432C107.505 14.1432 107.014 14.2831 106.663 14.5628C106.313 14.8425 106.137 15.196 106.137 15.6232C106.137 15.9742 106.246 16.2539 106.465 16.4624C106.689 16.6659 107.037 16.849 107.51 17.0117L109.494 17.6983C110.181 17.9272 110.722 18.2476 111.119 18.6596C111.521 19.0716 111.722 19.6056 111.722 20.2617C111.722 20.7703 111.584 21.2306 111.31 21.6426C111.04 22.0545 110.641 22.3826 110.112 22.6267C109.583 22.8709 108.934 22.9929 108.166 22.9929ZM117.929 13.2277H123.833V14.25H119.119V17.4695H123.559V18.4918H119.119V21.7723H123.833V22.8098H117.929V13.2277ZM135.641 13.2277L132.879 21.3192L130.132 13.2277H128.866L132.253 22.8098H133.489L136.907 13.2277H135.641ZM140.375 13.2277H141.824L145.044 22.8098H143.793L142.984 20.3533H139.169L138.33 22.8098H137.079L140.375 13.2277ZM142.679 19.4225L141.077 14.6772L139.475 19.4225H142.679ZM148.175 13.2277V21.7723H152.447V22.8098H146.985V13.2277H148.175ZM154.107 13.2277H160.012V14.25H155.297V17.4695H159.737V18.4918H155.297V21.7723H160.012V22.8098H154.107V13.2277ZM162.675 13.2277H164.094L168.854 20.9431V13.2277H170.045V22.8098H168.717L163.865 14.9583V22.8098H162.675V13.2277ZM171.671 14.25V13.2277H179.132V14.25H175.989V22.8098H174.799V14.25H171.671ZM180.749 13.2277H186.654V14.25H181.939V17.4695H186.38V18.4918H181.939V21.7723H186.654V22.8098H180.749V13.2277ZM88.1549 28.4147L86.5261 33.1257H86.9876L87.4416 31.8173H89.3832L89.818 33.1257H90.2834L88.6775 28.4147H88.1549ZM89.2611 31.4587H87.556L88.4067 28.964L89.2611 31.4587ZM96.4197 28.4147H95.1151V33.1257H96.4197C96.8927 33.1257 97.3008 33.0278 97.6442 32.832C97.99 32.6336 98.257 32.3577 98.4452 32.0042C98.6334 31.6507 98.7275 31.2388 98.7275 30.7683C98.7275 30.2928 98.6334 29.8795 98.4452 29.5286C98.257 29.1751 97.99 28.9017 97.6442 28.7085C97.3008 28.5126 96.8927 28.4147 96.4197 28.4147ZM95.5576 32.7519V28.7962H96.4197C96.8011 28.7962 97.1292 28.8814 97.4038 29.0518C97.6785 29.2221 97.8896 29.4561 98.0371 29.7536C98.1871 30.0486 98.2621 30.3869 98.2621 30.7683C98.2621 31.1472 98.1871 31.4867 98.0371 31.7868C97.8896 32.0843 97.6785 32.3196 97.4038 32.4925C97.1292 32.6654 96.8011 32.7519 96.4197 32.7519H95.5576ZM105.136 32.5702L106.597 28.4147H107.073L105.361 33.1257H104.907L103.205 28.4147H103.678L105.136 32.5702ZM112.376 32.9426C112.676 33.1206 113.014 33.2096 113.391 33.2096C113.765 33.2096 114.102 33.1219 114.402 32.9464C114.702 32.7684 114.939 32.5001 115.115 32.1415C115.29 31.783 115.378 31.3303 115.378 30.7836C115.378 30.2368 115.29 29.7829 115.115 29.4218C114.939 29.0581 114.702 28.7873 114.402 28.6093C114.102 28.4287 113.765 28.3384 113.391 28.3384C113.014 28.3384 112.676 28.4275 112.376 28.6055C112.076 28.7835 111.838 29.0543 111.663 29.418C111.487 29.7791 111.4 30.2343 111.4 30.7836C111.4 31.3252 111.487 31.7766 111.663 32.1377C111.838 32.4963 112.076 32.7646 112.376 32.9426ZM114.508 32.2865C114.236 32.6247 113.864 32.7938 113.391 32.7938C112.92 32.7938 112.548 32.6247 112.273 32.2865C111.998 31.9483 111.861 31.4473 111.861 30.7836C111.861 30.1249 111.998 29.6189 112.273 29.2654C112.548 28.9119 112.92 28.7352 113.391 28.7352C113.864 28.7352 114.236 28.9119 114.508 29.2654C114.781 29.6163 114.917 30.1198 114.917 30.7759C114.917 31.4422 114.781 31.9457 114.508 32.2865ZM120.92 32.8892C121.218 33.1028 121.574 33.2096 121.988 33.2096C122.344 33.2096 122.661 33.1448 122.938 33.0151C123.215 32.8854 123.433 32.701 123.59 32.462C123.748 32.2229 123.827 31.9381 123.827 31.6075H123.335C123.335 31.9712 123.212 32.2623 122.965 32.481C122.721 32.6997 122.395 32.8091 121.988 32.8091C121.643 32.8091 121.358 32.7175 121.134 32.5344C120.91 32.3488 120.744 32.0996 120.634 31.7868C120.527 31.4715 120.474 31.1192 120.474 30.7302C120.474 30.2953 120.544 29.9291 120.684 29.6316C120.826 29.334 121.012 29.1103 121.241 28.9602C121.472 28.8076 121.721 28.7313 121.988 28.7313C122.299 28.7313 122.573 28.8242 122.812 29.0098C123.054 29.1929 123.228 29.4434 123.335 29.7613L123.816 29.6545C123.686 29.2654 123.468 28.9488 123.163 28.7046C122.861 28.4605 122.469 28.3384 121.988 28.3384C121.617 28.3384 121.28 28.43 120.978 28.6131C120.677 28.7962 120.438 29.0658 120.26 29.4218C120.085 29.7753 119.997 30.2114 119.997 30.7302C119.997 31.2083 120.076 31.6342 120.234 32.008C120.394 32.3793 120.623 32.673 120.92 32.8892ZM129.847 28.4147L128.218 33.1257H128.679L129.133 31.8173H131.075L131.51 33.1257H131.975L130.369 28.4147H129.847ZM130.953 31.4587H129.248L130.098 28.964L130.953 31.4587ZM137.333 32.8892C137.631 33.1028 137.987 33.2096 138.401 33.2096C138.757 33.2096 139.074 33.1448 139.351 33.0151C139.628 32.8854 139.846 32.701 140.003 32.462C140.161 32.2229 140.24 31.9381 140.24 31.6075H139.748C139.748 31.9712 139.625 32.2623 139.378 32.481C139.134 32.6997 138.808 32.8091 138.401 32.8091C138.055 32.8091 137.771 32.7175 137.547 32.5344C137.323 32.3488 137.157 32.0996 137.047 31.7868C136.94 31.4715 136.887 31.1192 136.887 30.7302C136.887 30.2953 136.957 29.9291 137.097 29.6316C137.239 29.334 137.425 29.1103 137.654 28.9602C137.885 28.8076 138.134 28.7313 138.401 28.7313C138.712 28.7313 138.986 28.8242 139.225 29.0098C139.467 29.1929 139.641 29.4434 139.748 29.7613L140.229 29.6545C140.099 29.2654 139.881 28.9488 139.576 28.7046C139.274 28.4605 138.882 28.3384 138.401 28.3384C138.03 28.3384 137.693 28.43 137.39 28.6131C137.09 28.7962 136.851 29.0658 136.673 29.4218C136.498 29.7753 136.41 30.2114 136.41 30.7302C136.41 31.2083 136.489 31.6342 136.647 32.008C136.807 32.3793 137.036 32.673 137.333 32.8892ZM145.218 28.4147V33.1257H145.661V28.4147H145.218ZM152.116 28.4147L150.487 33.1257H150.948L151.402 31.8173H153.344L153.779 33.1257H154.244L152.638 28.4147H152.116ZM153.222 31.4587H151.517L152.367 28.964L153.222 31.4587Z" fill="#F5F5F5"/>
</svg>
