<svg width="35" height="35" viewBox="0 0 35 35" fill="none" xmlns="http://www.w3.org/2000/svg">
<path d="M23.9318 11.2915L15.7332 19.6426L11.5322 15.4247L9.2793 17.6777L15.9025 24.284L26.5405 13.9679L23.9318 11.2915Z" fill="white"/>
<path d="M17.5799 0.568848C8.22465 0.568848 0.640625 8.15287 0.640625 17.5081C0.640625 26.8634 8.22465 34.4474 17.5799 34.4474C26.9352 34.4474 34.5192 26.8634 34.5192 17.5081C34.5192 8.15287 26.9353 0.568848 17.5799 0.568848ZM17.5799 31.3815C9.91792 31.3815 3.70662 25.1701 3.70662 17.5081C3.70662 9.84614 9.91792 3.63484 17.5799 3.63484C25.238 3.64413 31.4439 9.84996 31.4532 17.5081C31.4532 25.1702 25.242 31.3815 17.5799 31.3815Z" fill="white"/>
</svg>
